<mxfile host="app.diagrams.net" modified="2023-11-09T00:21:49.099Z" agent="Mozilla/5.0 (Macintosh; Intel Mac OS X 10_15_7) AppleWebKit/537.36 (KHTML, like Gecko) Chrome/118.0.0.0 Safari/537.36" etag="IhvhdSaydRuHxBQ6Bisc" version="22.1.0" type="device">
  <diagram name="Page-1" id="0QD5Rw_LWkhTCoNdO41a">
    <mxGraphModel dx="1434" dy="797" grid="1" gridSize="10" guides="1" tooltips="1" connect="1" arrows="1" fold="1" page="1" pageScale="1" pageWidth="850" pageHeight="1100" math="0" shadow="0">
      <root>
        <mxCell id="0" />
        <mxCell id="1" parent="0" />
        <mxCell id="rGEQFj_3KCrsDAw02GoQ-35" value="" style="edgeStyle=orthogonalEdgeStyle;rounded=0;orthogonalLoop=1;jettySize=auto;html=1;" edge="1" parent="1" source="rGEQFj_3KCrsDAw02GoQ-2" target="rGEQFj_3KCrsDAw02GoQ-16">
          <mxGeometry relative="1" as="geometry" />
        </mxCell>
        <mxCell id="rGEQFj_3KCrsDAw02GoQ-2" value="Analytics ETL" style="shape=process;whiteSpace=wrap;html=1;backgroundOutline=1;" vertex="1" parent="1">
          <mxGeometry x="500" y="440" width="120" height="60" as="geometry" />
        </mxCell>
        <mxCell id="rGEQFj_3KCrsDAw02GoQ-36" value="" style="edgeStyle=orthogonalEdgeStyle;rounded=0;orthogonalLoop=1;jettySize=auto;html=1;" edge="1" parent="1" source="rGEQFj_3KCrsDAw02GoQ-3" target="rGEQFj_3KCrsDAw02GoQ-15">
          <mxGeometry relative="1" as="geometry" />
        </mxCell>
        <mxCell id="rGEQFj_3KCrsDAw02GoQ-3" value="EOD Load&lt;br&gt;(Accept)" style="shape=process;whiteSpace=wrap;html=1;backgroundOutline=1;" vertex="1" parent="1">
          <mxGeometry x="500" y="302.5" width="120" height="60" as="geometry" />
        </mxCell>
        <mxCell id="rGEQFj_3KCrsDAw02GoQ-4" value="Ingestion&lt;br&gt;(csv" style="shape=process;whiteSpace=wrap;html=1;backgroundOutline=1;" vertex="1" parent="1">
          <mxGeometry x="190" y="400" width="120" height="60" as="geometry" />
        </mxCell>
        <mxCell id="rGEQFj_3KCrsDAw02GoQ-5" value="Ingestion&lt;br&gt;(json)" style="shape=process;whiteSpace=wrap;html=1;backgroundOutline=1;" vertex="1" parent="1">
          <mxGeometry x="190" y="305" width="120" height="60" as="geometry" />
        </mxCell>
        <mxCell id="rGEQFj_3KCrsDAw02GoQ-8" value="source2.json" style="rounded=1;whiteSpace=wrap;html=1;" vertex="1" parent="1">
          <mxGeometry x="20" y="305" width="80" height="60" as="geometry" />
        </mxCell>
        <mxCell id="rGEQFj_3KCrsDAw02GoQ-9" value="Accepted CSV" style="rounded=1;whiteSpace=wrap;html=1;" vertex="1" parent="1">
          <mxGeometry x="360" y="305" width="80" height="55" as="geometry" />
        </mxCell>
        <mxCell id="rGEQFj_3KCrsDAw02GoQ-10" value="Rejected CSV" style="rounded=1;whiteSpace=wrap;html=1;" vertex="1" parent="1">
          <mxGeometry x="360" y="220" width="80" height="60" as="geometry" />
        </mxCell>
        <mxCell id="rGEQFj_3KCrsDAw02GoQ-11" value="Accepted JSON" style="rounded=1;whiteSpace=wrap;html=1;" vertex="1" parent="1">
          <mxGeometry x="360" y="405" width="80" height="50" as="geometry" />
        </mxCell>
        <mxCell id="rGEQFj_3KCrsDAw02GoQ-12" value="Rejected JSON" style="rounded=1;whiteSpace=wrap;html=1;" vertex="1" parent="1">
          <mxGeometry x="360" y="490" width="80" height="60" as="geometry" />
        </mxCell>
        <mxCell id="rGEQFj_3KCrsDAw02GoQ-13" value="source1.csv" style="rounded=1;whiteSpace=wrap;html=1;" vertex="1" parent="1">
          <mxGeometry x="20" y="400" width="80" height="60" as="geometry" />
        </mxCell>
        <mxCell id="rGEQFj_3KCrsDAw02GoQ-15" value="EOD Trade&lt;br&gt;Quote" style="shape=cylinder3;whiteSpace=wrap;html=1;boundedLbl=1;backgroundOutline=1;size=15;" vertex="1" parent="1">
          <mxGeometry x="670" y="287.5" width="70" height="90" as="geometry" />
        </mxCell>
        <mxCell id="rGEQFj_3KCrsDAw02GoQ-16" value="quote-trade-analytical" style="shape=cylinder3;whiteSpace=wrap;html=1;boundedLbl=1;backgroundOutline=1;size=15;" vertex="1" parent="1">
          <mxGeometry x="670" y="425" width="70" height="90" as="geometry" />
        </mxCell>
        <mxCell id="rGEQFj_3KCrsDAw02GoQ-21" value="" style="endArrow=classic;html=1;rounded=0;entryX=0;entryY=0.5;entryDx=0;entryDy=0;exitX=1;exitY=0.5;exitDx=0;exitDy=0;" edge="1" parent="1" source="rGEQFj_3KCrsDAw02GoQ-8" target="rGEQFj_3KCrsDAw02GoQ-5">
          <mxGeometry width="50" height="50" relative="1" as="geometry">
            <mxPoint x="150" y="330" as="sourcePoint" />
            <mxPoint x="190" y="280" as="targetPoint" />
          </mxGeometry>
        </mxCell>
        <mxCell id="rGEQFj_3KCrsDAw02GoQ-22" value="" style="endArrow=classic;html=1;rounded=0;entryX=0;entryY=0.5;entryDx=0;entryDy=0;exitX=1;exitY=0.5;exitDx=0;exitDy=0;" edge="1" parent="1">
          <mxGeometry width="50" height="50" relative="1" as="geometry">
            <mxPoint x="100" y="429.5" as="sourcePoint" />
            <mxPoint x="190" y="429.5" as="targetPoint" />
          </mxGeometry>
        </mxCell>
        <mxCell id="rGEQFj_3KCrsDAw02GoQ-23" value="" style="endArrow=classic;html=1;rounded=0;entryX=0;entryY=0.5;entryDx=0;entryDy=0;" edge="1" parent="1" target="rGEQFj_3KCrsDAw02GoQ-10">
          <mxGeometry width="50" height="50" relative="1" as="geometry">
            <mxPoint x="310" y="330" as="sourcePoint" />
            <mxPoint x="360" y="290" as="targetPoint" />
          </mxGeometry>
        </mxCell>
        <mxCell id="rGEQFj_3KCrsDAw02GoQ-24" value="" style="endArrow=classic;html=1;rounded=0;" edge="1" parent="1" target="rGEQFj_3KCrsDAw02GoQ-9">
          <mxGeometry width="50" height="50" relative="1" as="geometry">
            <mxPoint x="310" y="333" as="sourcePoint" />
            <mxPoint x="360" y="290" as="targetPoint" />
          </mxGeometry>
        </mxCell>
        <mxCell id="rGEQFj_3KCrsDAw02GoQ-25" value="" style="endArrow=classic;html=1;rounded=0;entryX=0;entryY=0.5;entryDx=0;entryDy=0;" edge="1" parent="1" target="rGEQFj_3KCrsDAw02GoQ-12">
          <mxGeometry width="50" height="50" relative="1" as="geometry">
            <mxPoint x="310" y="430" as="sourcePoint" />
            <mxPoint x="360" y="350" as="targetPoint" />
          </mxGeometry>
        </mxCell>
        <mxCell id="rGEQFj_3KCrsDAw02GoQ-27" value="" style="endArrow=classic;html=1;rounded=0;" edge="1" parent="1">
          <mxGeometry width="50" height="50" relative="1" as="geometry">
            <mxPoint x="310" y="429.5" as="sourcePoint" />
            <mxPoint x="360" y="429.5" as="targetPoint" />
          </mxGeometry>
        </mxCell>
        <mxCell id="rGEQFj_3KCrsDAw02GoQ-28" value="" style="endArrow=classic;html=1;rounded=0;exitX=1;exitY=0.5;exitDx=0;exitDy=0;entryX=0;entryY=0.5;entryDx=0;entryDy=0;" edge="1" parent="1" source="rGEQFj_3KCrsDAw02GoQ-9" target="rGEQFj_3KCrsDAw02GoQ-3">
          <mxGeometry width="50" height="50" relative="1" as="geometry">
            <mxPoint x="450" y="440" as="sourcePoint" />
            <mxPoint x="500" y="390" as="targetPoint" />
          </mxGeometry>
        </mxCell>
        <mxCell id="rGEQFj_3KCrsDAw02GoQ-29" value="" style="endArrow=classic;html=1;rounded=0;exitX=1;exitY=0.5;exitDx=0;exitDy=0;entryX=0;entryY=0.75;entryDx=0;entryDy=0;" edge="1" parent="1" source="rGEQFj_3KCrsDAw02GoQ-11" target="rGEQFj_3KCrsDAw02GoQ-3">
          <mxGeometry width="50" height="50" relative="1" as="geometry">
            <mxPoint x="470" y="500" as="sourcePoint" />
            <mxPoint x="500" y="310" as="targetPoint" />
          </mxGeometry>
        </mxCell>
        <mxCell id="rGEQFj_3KCrsDAw02GoQ-31" value="" style="endArrow=classic;html=1;rounded=0;exitX=1;exitY=0.5;exitDx=0;exitDy=0;entryX=0;entryY=0.5;entryDx=0;entryDy=0;" edge="1" parent="1" source="rGEQFj_3KCrsDAw02GoQ-9" target="rGEQFj_3KCrsDAw02GoQ-2">
          <mxGeometry width="50" height="50" relative="1" as="geometry">
            <mxPoint x="520" y="440" as="sourcePoint" />
            <mxPoint x="570" y="390" as="targetPoint" />
          </mxGeometry>
        </mxCell>
        <mxCell id="rGEQFj_3KCrsDAw02GoQ-32" value="" style="endArrow=classic;html=1;rounded=0;entryX=0;entryY=0.65;entryDx=0;entryDy=0;entryPerimeter=0;" edge="1" parent="1" target="rGEQFj_3KCrsDAw02GoQ-2">
          <mxGeometry width="50" height="50" relative="1" as="geometry">
            <mxPoint x="440" y="430" as="sourcePoint" />
            <mxPoint x="500" y="430" as="targetPoint" />
          </mxGeometry>
        </mxCell>
      </root>
    </mxGraphModel>
  </diagram>
</mxfile>
